<?xml version="1.0" encoding="UTF-8"?>
<!DOCTYPE svg PUBLIC "-//W3C//DTD SVG 1.1//EN" "http://www.w3.org/Graphics/SVG/1.1/DTD/svg11.dtd">
<!-- Creator: CorelDRAW X8 -->
<svg xmlns="http://www.w3.org/2000/svg" xml:space="preserve" width="297mm" height="210mm" version="1.1" style="shape-rendering:geometricPrecision; text-rendering:geometricPrecision; image-rendering:optimizeQuality; fill-rule:evenodd; clip-rule:evenodd"
viewBox="0 0 29700 21000"
 xmlns:xlink="http://www.w3.org/1999/xlink">
 <defs>
  <style type="text/css">
   <![CDATA[
    .fil14 {fill:none}
    .fil56 {fill:#054F52}
    .fil6 {fill:#165E60}
    .fil49 {fill:#175E61}
    .fil28 {fill:#195F61}
    .fil48 {fill:#1C7578}
    .fil10 {fill:#1C7678}
    .fil65 {fill:#1E7150}
    .fil24 {fill:#207778}
    .fil13 {fill:#27788C}
    .fil22 {fill:#2B2B2B}
    .fil30 {fill:#2B798C}
    .fil64 {fill:#2D8862}
    .fil53 {fill:#308FA6}
    .fil29 {fill:#318EA5}
    .fil12 {fill:#318FA6}
    .fil84 {fill:#33302D}
    .fil81 {fill:#342519}
    .fil26 {fill:#359495}
    .fil37 {fill:#362C24}
    .fil9 {fill:#369496}
    .fil73 {fill:#39471C}
    .fil11 {fill:#3AA0BA}
    .fil31 {fill:#3C9FB9}
    .fil71 {fill:#3E2B18}
    .fil66 {fill:#405B25}
    .fil42 {fill:#454444}
    .fil36 {fill:#46382D}
    .fil63 {fill:#47AA7E}
    .fil61 {fill:#4B4949}
    .fil39 {fill:#50A8AA}
    .fil20 {fill:#50A9AA}
    .fil67 {fill:#53702A}
    .fil43 {fill:#545657}
    .fil82 {fill:#59422E}
    .fil91 {fill:#5E5044}
    .fil54 {fill:#5EBFD9}
    .fil5 {fill:#5EC0D9}
    .fil33 {fill:#5F5145}
    .fil62 {fill:#646060}
    .fil16 {fill:#6F7173}
    .fil8 {fill:#72CBCC}
    .fil76 {fill:#738944}
    .fil50 {fill:#73CCCC}
    .fil4 {fill:#73CFE5}
    .fil92 {fill:#74665B}
    .fil38 {fill:#74675B}
    .fil41 {fill:#74CACB}
    .fil3 {fill:#7C6262}
    .fil17 {fill:#858686}
    .fil19 {fill:#8CE0DC}
    .fil2 {fill:#8F8F8F}
    .fil40 {fill:#93D4D5}
    .fil0 {fill:#997C7C}
    .fil1 {fill:#ABABAB}
    .fil15 {fill:#B29393}
    .fil75 {fill:#BDC30F}
    .fil77 {fill:#C49212}
    .fil18 {fill:#C4A7A7}
    .fil35 {fill:#CDA29E}
    .fil88 {fill:#CEA19C}
    .fil44 {fill:#CEA39F}
    .fil21 {fill:#CECECD}
    .fil47 {fill:#CFA39E}
    .fil68 {fill:#D4A8A2}
    .fil32 {fill:#D6BAB6}
    .fil74 {fill:#DFDF3A}
    .fil78 {fill:#E5A91F}
    .fil70 {fill:#E5E4E4}
    .fil52 {fill:#E6E8E8}
    .fil79 {fill:#E7C800}
    .fil51 {fill:#ECECEB}
    .fil87 {fill:#EECEC9}
    .fil25 {fill:#EED0CA}
    .fil45 {fill:#EFD0CB}
    .fil72 {fill:#F0F2F2}
    .fil46 {fill:#F2D1CC}
    .fil69 {fill:#F2D6D2}
    .fil85 {fill:#F4D7D2}
    .fil27 {fill:#FDEEE9}
    .fil89 {fill:#FEEEE9}
    .fil80 {fill:#FEF2F0}
    .fil90 {fill:#FEF4F2}
    .fil83 {fill:#FEF8F8}
    .fil57 {fill:#FFEEE9}
    .fil55 {fill:#FFF0ED}
    .fil58 {fill:#FFF5F3}
    .fil34 {fill:#FFF5F4}
    .fil59 {fill:white}
    .fil23 {fill:#231F20;fill-opacity:0.101961}
    .fil7 {fill:#2B2B2B;fill-opacity:0.101961}
    .fil60 {fill:#33302D;fill-opacity:0.101961}
    .fil86 {fill:#070908;fill-opacity:0.149020}
   ]]>
  </style>
 </defs>
 <g id="Camada_x0020_1">
  <metadata id="CorelCorpID_0Corel-Layer"/>
  <g id="_2593932133856">
   <g>
    <polygon class="fil0" points="23242,6956 23922,7720 23936,7971 23561,8540 23450,8499 23061,8346 23005,8165 22310,6484 22561,6108 23297,5455 "/>
    <polygon class="fil1" points="23242,6623 23408,7137 23923,7720 23936,7971 23089,7665 22727,6122 22811,5969 22894,5983 22978,6372 "/>
    <polygon class="fil2" points="23311,4760 23228,4621 22783,4468 22380,4607 22352,5441 22727,6122 23228,5678 23339,5455 "/>
    <polygon class="fil3" points="25034,7971 24617,8360 24506,8610 24339,9319 23992,9319 23742,8610 23450,8499 23936,7971 24868,7859 "/>
    <polygon class="fil4" points="24881,11250 24798,11640 24548,11765 24061,11751 24061,9430 24173,9194 24298,8513 24506,8610 24798,9069 "/>
    <polygon class="fil5" points="24173,9194 24228,11514 24061,11751 23742,11737 23561,11612 23422,11250 23533,9166 23742,8610 23923,8527 "/>
    <polygon class="fil6" points="22435,12654 22547,13140 22463,13321 21741,12654 22005,12460 22241,12487 "/>
    <polygon class="fil7" points="27244,15434 24826,16059 22019,15656 24381,15017 "/>
    <polygon class="fil8" points="25965,10111 25813,10305 25396,10347 25368,9041 25479,8860 "/>
    <path class="fil9" d="M25535 10208l430 -97 334 375 42 598 -737 472 -194 -139 -14 -1070 139 -139zm-3794 2446l278 -528 208 139 14 222 -500 167z"/>
    <path class="fil10" d="M23784 15531l-306 -97 -598 13 -194 84 0 222 1098 14 0 -236zm3001 -389l-375 -84 -750 14 -264 70 0 222 1389 0 0 -222z"/>
    <path class="fil6" d="M23575 14989l209 542 -1098 0 194 -584 153 -83 389 0 153 125zm2488 -459l722 612 -1389 0 0 -362 111 -194 389 -139 167 83z"/>
    <polygon class="fil11" points="25743,12487 26063,14530 25771,14641 25576,14558 24951,12793 25034,12640 25562,12418 "/>
    <polygon class="fil12" points="25396,14780 25771,14641 25034,12640 24200,12904 24159,13113 "/>
    <polygon class="fil13" points="22964,12418 23381,14822 23283,14975 22880,14947 22366,12946 22366,12765 22783,12195 "/>
    <line class="fil14" x1="23158" y1="14961" x2="21782" y2= "8888" />
    <polygon class="fil12" points="22797,12307 23283,14975 23575,14989 24159,13113 24020,12849 23103,12293 "/>
    <polygon class="fil15" points="22366,12946 22797,12307 22672,12279 22324,12390 22241,12487 "/>
    <polygon class="fil13" points="25076,12751 24159,13113 22797,12307 22894,12154 23547,11876 24784,11945 24909,12015 25090,12543 "/>
    <polygon class="fil9" points="25340,11528 25604,11556 25743,12487 25076,12751 24812,12043 24923,11806 "/>
    <polygon class="fil16" points="24923,11806 24826,12043 23561,12043 23422,11792 23561,11612 24798,11640 "/>
    <polygon class="fil17" points="24492,11640 24061,11584 24061,12084 24492,12043 "/>
    <polygon class="fil1" points="24492,11514 24492,11640 24089,11626 24089,12043 24492,12043 24492,12168 23950,12182 23964,11514 "/>
    <path class="fil12" d="M24339 9569l-152 139 -167 -139 167 -153 152 153zm28 792l-167 153 -166 -139 166 -167 167 153zm14 764l-167 153 -166 -139 166 -167 167 153z"/>
    <polygon class="fil5" points="24895,9055 24798,8596 24617,8360 24298,8513 24715,9166 "/>
    <polygon class="fil4" points="23923,8527 23617,9263 23158,8999 22894,8499 23005,8165 "/>
    <polygon class="fil0" points="27842,9861 27981,9958 27856,10625 27327,10458 27244,10153 27258,9861 "/>
    <polygon class="fil18" points="28481,9736 28467,9944 27397,9958 27258,9861 27466,9583 "/>
    <polygon class="fil15" points="27536,9069 27327,10458 27063,10305 26966,9888 27300,9041 "/>
    <polygon class="fil19" points="26521,9986 26966,9888 27327,10458 26938,10708 26577,10430 "/>
    <path class="fil20" d="M25965 10111l556 -125 417 722 -597 376 -376 -973zm-486 -1251l-681 -264 83 389 445 542 -458 1501 -70 612 14 403 792 -487 -125 -2696z"/>
    <polygon class="fil19" points="25507,9513 24798,11640 24715,9166 24798,8596 "/>
    <polygon class="fil3" points="22310,6484 22727,6122 22491,5942 22324,6081 "/>
    <polygon class="fil15" points="22769,5455 22352,5441 22324,6081 22727,6122 "/>
    <polygon class="fil3" points="22588,5622 22574,5900 22435,5622 "/>
    <polygon class="fil15" points="23242,6623 23353,6956 24270,7832 25396,7846 25799,7415 25910,7081 25882,5664 25854,4677 25298,3899 25020,3885 24701,4190 23978,3829 23672,3829 23200,4343 23228,4538 "/>
    <path class="fil1" d="M23853 3885l-625 736 -848 -14 903 -1000 445 125 125 153zm1473 -125l528 917 -681 -723 -55 -125 208 -69z"/>
    <polygon class="fil21" points="24520,4232 25076,4246 25326,3760 23283,3607 "/>
    <path class="fil0" d="M25813 5691l-362 181 -250 612 -208 -278 14 -278 166 -237 445 -152 195 152zm-1209 -13l194 264 0 236 -208 306 -237 -556 -403 -250 125 -167 529 167zm986 -515l-625 153 -876 -167 862 112 639 -98zm-167 -208l-500 97 -653 -139 653 97 500 -55z"/>
    <polygon class="fil3" points="24909,6400 25201,6484 24937,6650 24590,6484 "/>
    <polygon class="fil18" points="25007,5928 24798,5942 24590,6484 25201,6484 "/>
    <path class="fil0" d="M25576 6553l125 375 -375 -472 250 97zm-1084 -125l-597 445 250 -389 347 -56zm556 1098l-403 -14 223 -97 180 111zm403 -584l-153 84 14 -28 125 83 14 -139 0 0zm-1098 28l-166 -56 13 125 153 -69z"/>
    <polygon class="fil0" points="25145,7304 25326,7012 24353,6970 24478,7290 "/>
    <path class="fil21" d="M25910 7081l-181 195 -180 -528 -612 -98 -820 56 -320 472 -555 -555 0 597 694 751 1515 27 473 -542 -14 -375 0 0zm-320 362l-264 277 -1028 -41 -362 -362 278 -430 612 -70 625 84 139 542 0 0z"/>
    <polygon class="fil0" points="24923,6984 24937,6650 24826,6817 "/>
    <path class="fil22" d="M25396 5817c-62,0 -112,49 -112,111 0,61 50,111 112,111 61,0 111,-50 111,-111 0,-62 -50,-111 -111,-111zm-1001 0c-61,0 -111,49 -111,111 0,61 50,111 111,111 61,0 111,-50 111,-111 0,-62 -50,-111 -111,-111z"/>
    <path class="fil1" d="M25660 5483l222 181 -69 27 -195 -111 -445 111 14 -125 473 -83zm-1070 56l14 139 -515 -112 -139 112 -69 -42 180 -167 529 70z"/>
    <polygon class="fil3" points="25312,6998 24909,7165 24353,6970 24617,6859 24937,6984 25145,6887 "/>
    <polygon class="fil20" points="22727,9513 22950,8874 22894,8499 22171,8777 22116,9208 22380,10889 23325,11973 23561,12043 23561,11612 23450,10917 "/>
    <polygon class="fil9" points="23561,12043 22797,12293 22672,12209 22463,11000 22533,10834 "/>
    <polygon class="fil20" points="22019,12126 22199,12195 22644,12043 22727,11876 22533,10834 22380,10708 21490,10722 21240,10903 "/>
    <polygon class="fil19" points="22727,11876 22019,12126 22241,12487 22797,12307 "/>
    <polygon class="fil8" points="22171,8777 21240,10903 22533,10834 "/>
    <polygon class="fil19" points="23617,9263 22894,8499 22602,9458 23561,11612 "/>
   </g>
   <g>
    <polygon class="fil23" points="9835,15547 8835,15371 6807,15073 2761,15489 5533,16055 "/>
    <path class="fil24" d="M6523 14999l184 663 -589 110 -589 -110 287 -674 416 -250 291 261zm-1436 -11l0 449 -618 111 -872 -111 798 -582 365 -55 327 188z"/>
    <polygon class="fil25" points="2305,8462 2728,7887 2246,7762 1624,8127 2014,8612 2261,8598 "/>
    <polygon class="fil24" points="7289,9039 6946,9603 7024,10615 7458,11097 7962,11226 8301,10814 "/>
    <polygon class="fil26" points="8055,12286 8301,10814 7458,11097 7373,12106 7679,12452 "/>
    <polygon class="fil27" points="7373,12106 7101,12404 7013,12698 7418,13052 7845,12952 8055,12286 "/>
    <path class="fil25" d="M7845 12952l-280 324 -556 -121 4 -457 832 254zm-472 -846l-427 291 67 301 360 -592z"/>
    <polygon class="fil28" points="2728,7887 3034,7751 2971,7652 2827,7685 2735,7799 "/>
    <polygon class="fil26" points="2592,8318 2014,8612 2691,10066 3063,9901 3299,9393 "/>
    <path class="fil24" d="M3192 9198l-501 868 1439 -150 265 -358 -265 -846 -938 486zm-946 -1436l302 -143 180 268 184 -368 37 -276 -1075 -2058 -236 126 523 1211 -132 228 232 523 -218 136 203 353z"/>
    <polygon class="fil28" points="2614,6603 2183,6790 2481,7449 2949,7243 "/>
    <path class="fil27" d="M2261 7273l-218 136 -250 -464 236 -195 232 523zm467 614l-519 265 -169 -287 508 -246 180 268z"/>
    <polygon class="fil24" points="2209,8152 1819,8351 1624,8127 2040,7865 "/>
    <polygon class="fil28" points="3597,15437 5087,15437 5087,15658 3597,15658 "/>
    <polygon class="fil29" points="5087,12338 3862,11907 4130,12338 4267,13648 4694,13990 5342,13843 5459,13324 5570,13159 5353,12827 "/>
    <polygon class="fil30" points="4395,14855 5088,14988 5342,13843 4267,13648 "/>
    <polygon class="fil31" points="6946,12397 6652,11947 5353,12827 5573,13861 6159,13917 6759,13541 "/>
    <polygon class="fil29" points="5816,14988 6523,14999 6759,13541 5573,13862 "/>
    <polygon class="fil31" points="5205,12761 5087,12338 "/>
    <polygon class="fil30" points="4300,12062 5353,12827 5537,12761 6468,11951 5827,11627 5360,11241 4624,11531 "/>
    <polygon class="fil25" points="4569,8042 5117,9084 6280,8395 6394,8119 6847,6547 6402,6058 5658,4803 5566,7475 5135,8042 "/>
    <polygon class="fil32" points="5986,6430 5897,6765 5607,7008 5544,7398 5095,8178 5750,8178 5956,7549 6277,6511 "/>
    <polygon class="fil33" points="3010,5073 2945,4674 3111,4173 5040,3621 6483,4111 6700,4574 6387,4972 5658,4803 5330,4644 4189,4836 3492,4803 "/>
    <polygon class="fil27" points="3010,5073 3155,7409 3921,8178 5128,8178 5371,7641 5607,7008 5658,4806 5327,4644 4171,4847 3350,4718 "/>
    <polygon class="fil34" points="3954,6113 4178,6113 4274,6798 3902,6798 "/>
    <polygon class="fil35" points="3902,6798 4090,6989 4274,6798 "/>
    <path class="fil25" d="M5246 5848l-626 320 -361 519 -81 -574 118 -283 593 -162 357 180zm-1417 18l125 247 -41 526 -364 -423 -379 -390 198 -125 461 165z"/>
    <path class="fil22" d="M3703 6216c0,77 -62,144 -143,144 -77,0 -144,-63 -144,-144 0,-81 63,-143 144,-143 77,0 143,62 143,143zm928 -191c79,0 144,64 144,143 0,80 -65,144 -144,144 -79,0 -144,-64 -144,-144 0,-79 65,-143 144,-143z"/>
    <polygon class="fil36" points="3111,4173 3376,4718 4189,4836 5658,4803 4837,4324 "/>
    <polygon class="fil37" points="3251,4821 4178,4906 4222,4530 3111,4173 "/>
    <polygon class="fil38" points="5658,4803 6483,4111 6700,4574 "/>
    <polygon class="fil34" points="6196,6765 6748,6901 6946,6220 6402,6058 "/>
    <path class="fil35" d="M6376 6628l419 -290 -309 -85 -110 375zm-180 137l467 419 85 -283 -552 -136z"/>
    <polygon class="fil28" points="5529,15882 6707,15882 6707,15662 5529,15662 "/>
    <polygon class="fil39" points="7289,9039 6280,8395 5566,10703 6346,10825 7024,10615 "/>
    <polygon class="fil26" points="6946,12397 7024,10615 5566,10703 5537,12761 "/>
    <polygon class="fil39" points="5117,9084 4130,8712 4130,10552 4550,10825 5117,10725 "/>
    <polygon class="fil26" points="4171,12643 5117,10725 4130,10552 3247,11981 "/>
    <line class="fil14" x1="6946" y1="12397" x2="6468" y2= "14844" />
    <polygon class="fil28" points="5820,11627 5930,10707 5459,10239 5117,10725 4624,11531 "/>
    <polygon class="fil24" points="5930,10707 6280,8395 5117,9084 5117,10725 5566,10703 "/>
    <line class="fil14" x1="4130" y1="12338" x2="4395" y2= "14855" />
    <polygon class="fil40" points="5566,10703 5732,10851 5934,10681 6365,9039 6203,8977 5919,9419 "/>
    <polygon class="fil41" points="5566,10703 5537,12761 5872,12676 5930,10759 5934,10681 "/>
    <polygon class="fil28" points="6037,8981 6994,8506 6280,8395 "/>
    <polygon class="fil41" points="5919,9419 7116,8421 6394,8119 6280,8395 6645,8487 6037,8981 "/>
    <polygon class="fil40" points="4852,10681 4944,10869 5117,10725 5117,9419 4834,8977 4856,9231 "/>
    <polygon class="fil41" points="4852,10681 4804,10781 3965,12496 4171,12643 5117,10725 "/>
    <polygon class="fil28" points="4315,8712 5025,9198 5117,9084 4716,8259 "/>
    <polygon class="fil41" points="4716,8443 4598,8259 4447,8244 4130,8712 5117,9419 5117,9084 4550,8653 "/>
    <path class="fil24" d="M6045 9558l-111 92 66 126 100 -111 -55 -107zm-137 622l-110 93 66 125 103 -111 -59 -107z"/>
    <path class="fil28" d="M5732 11108l-85 118 99 103 70 -133 -84 -88zm3 729l-84 114 99 107 66 -133 -81 -88z"/>
    <polygon class="fil25" points="2043,7409 2246,7762 1624,8127 1447,7736 "/>
    <polygon class="fil27" points="2305,8462 2592,8318 2728,7887 2323,8093 "/>
    <path class="fil36" d="M6067 5918l-78 515 288 78 128 -453 545 162 59 -372 -372 -110 -567 180 -3 0 0 0zm338 140l0 -8 4 0 -4 8z"/>
    <polygon class="fil38" points="5658,4803 7112,5141 7005,5848 6067,5918 5643,5314 "/>
    <polygon class="fil33" points="7112,5141 5643,5314 5658,4803 6700,4574 "/>
    <polygon class="fil36" points="6067,3971 5345,4284 3111,4173 3803,4648 4178,4906 5658,4803 6483,4111 "/>
    <path class="fil40" d="M7171 9724l-957 -136 -15 99 162 22 -147 622 644 45 136 -578 162 22 15 -100 0 4 0 0zm-828 519l59 -243 220 118 210 -52 -48 210 -438 -29 -3 -4 0 0zm511 -287l-220 55 -210 -110 40 -173 427 62 -40 170 3 -4 0 0zm-2724 -537l0 51 354 52 -8 106 -346 92 0 100 339 -85 -15 276 -324 -55 0 92 416 81 37 -593 427 67 15 -100 -887 -132 -8 48z"/>
    <polygon class="fil35" points="3902,7354 3902,7449 4686,7379 4661,7284 "/>
    <path class="fil25" d="M5607 7008l-589 574 -199 -398 -729 -195 -427 280 -18 239 -513 -482 23 383 766 765 1207 0 460 -434 19 -736 0 4 0 0zm-1042 761l-412 15 -251 -151 0 -279 759 -70 95 327 -191 158 0 0z"/>
    <path class="fil35" d="M4392 8178l-19 -405 -51 0 -70 405 140 0zm725 906l633 -906 -1358 0 725 906z"/>
    <path class="fil36" d="M4296 5830l70 -137 512 -84 364 103 4 136 -376 -110 -574 92zm-467 36l-92 -147 -380 -77 -202 70 15 114 206 -63 453 103z"/>
   </g>
   <g>
    <polygon class="fil7" points="23482,17021 20261,16297 16939,17035 20210,17843 "/>
    <polygon class="fil16" points="18845,17321 18849,17174 18582,17132 18176,17095 17931,16768 17761,16726 17687,16869 18028,17307 "/>
    <polygon class="fil42" points="18480,16454 18568,16901 18536,17049 18079,17164 17761,16726 17977,16269 18231,16066 18439,16237 "/>
    <polygon class="fil43" points="18568,16901 18079,17164 18849,17174 "/>
    <polygon class="fil16" points="22573,16948 22573,16814 22407,16758 21438,16740 21276,16814 21272,16957 "/>
    <polygon class="fil42" points="21793,16209 22573,16814 21276,16814 21281,16283 21350,16177 21641,16126 "/>
    <polygon class="fil44" points="20192,10156 20335,10262 20252,10419 20252,10650 19966,11213 19791,11213 19357,10825 19325,10516 19772,10133 "/>
    <polygon class="fil5" points="20875,5805 21092,6497 20879,6530 20275,6161 20224,5621 20377,5353 "/>
    <polygon class="fil11" points="18508,5851 20377,5353 20492,6105 20400,6244 18826,6682 18379,6668 "/>
    <path class="fil13" d="M16995 7808l373 -845 513 111 530 355 -32 374 -217 448 -1167 -443zm5545 -139l-479 568 -679 41 -138 -124 -19 -863 213 -166 1102 544z"/>
    <polygon class="fil12" points="22540,7669 21373,7549 21281,7116 21336,6940 21567,6779 "/>
    <polygon class="fil45" points="19163,9173 19961,10142 19338,10673 19168,10650 18886,10401 18812,10175 18268,9132 18337,8767 19034,7609 19200,7803 "/>
    <polygon class="fil12" points="21830,10825 22462,10913 22877,10641 22171,10373 "/>
    <polygon class="fil46" points="16644,10216 16792,10179 17008,10318 16746,10968 16575,10931 16570,10797 16473,10438 "/>
    <polygon class="fil47" points="16746,10968 16529,11139 16196,11088 15975,10811 16303,10710 16570,10797 "/>
    <polygon class="fil48" points="22107,14830 21322,15185 21050,15208 20035,15033 20040,14830 20903,13792 21138,13832 22291,14608 "/>
    <polygon class="fil49" points="22291,14608 21050,15208 21281,16283 21793,16209 "/>
    <polygon class="fil4" points="22877,10641 22504,9469 21908,9390 21853,9519 22107,10433 22208,10511 "/>
    <path class="fil12" d="M22573 9686l-46 -134 -203 -37 36 134 213 37zm-439 553l-4 92 41 42 259 46 -37 -134 -259 -46 0 0zm-69 -258l-14 97 51 37 258 46 -32 -134 -263 -46 0 0zm-69 -259l-18 93 55 41 263 42 -37 -129 -263 -47 0 0zm-69 -263l-28 116 65 18 263 46 -37 -133 -263 -47 0 0zm729 490l-42 -134 -221 -42 37 134 226 42zm83 262l-42 -133 -235 -42 37 134 240 41 0 0zm83 259l-42 -134 -249 -41 33 133 258 42 0 0z"/>
    <polygon class="fil11" points="21908,9390 21447,9727 21830,10825 22208,10511 "/>
    <path class="fil13" d="M21479 9819l46 130 153 -134 -37 -129 -162 133zm88 249l46 130 143 -125 -41 -134 -148 129zm88 250l46 124 129 -111 -37 -133 -138 120 0 0zm87 249l42 124 120 -101 -37 -134 -125 111zm429 -194l-32 -129 -5 -5 -156 139 36 133 157 -138 0 0zm-106 -392l37 134 -161 138 -37 -134 161 -138zm-69 -259l37 130 -171 143 -37 -130 171 -143 0 0zm-69 -263l32 130 -171 152 -37 -134 176 -148z"/>
    <polygon class="fil9" points="21009,10728 20432,10636 20524,11702 20086,12998 20284,13100 20962,12763 21078,12500 21138,11711 "/>
    <polygon class="fil50" points="20086,12998 19947,13321 20017,14009 20192,14216 21119,13667 21078,12505 "/>
    <polygon class="fil48" points="20086,12998 18956,11859 18716,10516 18000,10742 17904,11139 17973,12117 18143,12449 18633,12763 19615,13003 "/>
    <polygon class="fil9" points="18143,12449 18259,13856 18420,14009 19994,14322 20192,14216 20086,12998 "/>
    <polygon class="fil21" points="19145,11563 19578,12223 20210,12140 20335,11287 20141,11083 19860,11125 19375,11254 "/>
    <polygon class="fil12" points="19869,11374 19989,11494 20294,12251 20086,12998 19569,12343 19749,11513 "/>
    <polygon class="fil13" points="20100,11259 19989,11494 19749,11513 19565,11310 19625,11157 19860,11125 20012,11125 "/>
    <polygon class="fil51" points="20432,10636 20252,10419 19860,11125 18812,10175 18716,10516 19145,11563 19864,11125 20321,11388 20469,11065 "/>
    <path class="fil50" d="M20432 10636l291 1121 -637 1241 346 -2362zm-1716 -120l92 1467 1278 1015 -1370 -2482z"/>
    <path class="fil6" d="M21009 10728l973 1223 -88 134 -585 369 -231 51 -69 -1777zm-3009 14l-867 1052 -41 231 263 586 272 221 516 -383 -143 -1707z"/>
    <path class="fil9" d="M17627 12832l-881 -1864 -550 120 277 1504 1154 240zm5287 -807l-1043 1084 -793 -604 1255 -766 166 13 268 120 147 153z"/>
    <polygon class="fil5" points="22642,11065 22670,10779 22319,10714 22291,10765 22379,11088 "/>
    <polygon class="fil11" points="22319,10714 22144,10867 22250,10996 22430,11083 "/>
    <polygon class="fil5" points="22333,11739 22568,11854 20787,16625 20621,16662 20557,16551 "/>
    <polygon class="fil47" points="22033,11370 22250,10996 22310,11111 22351,11370 22305,11494 "/>
    <path class="fil52" d="M15380 9436l9 -378 286 -268 -106 -599 161 -443 -373 346 32 590 -217 305 208 447zm-148 -1033l-55 -411 171 -300 -379 282 263 429z"/>
    <polygon class="fil48" points="20035,15033 19818,14710 18748,14073 18299,14322 18393,15416 18573,15642 19080,15826 19408,15817 "/>
    <polygon class="fil6" points="18259,13856 18299,14322 20035,15033 21138,13832 21119,13667 20192,14216 "/>
    <polygon class="fil49" points="18393,15416 17977,16269 18480,16454 19408,15817 "/>
    <polygon class="fil53" points="15592,9639 16681,9953 16644,10216 15527,9949 15454,9764 "/>
    <polygon class="fil54" points="15380,9579 15592,9639 15527,9949 15320,9902 "/>
    <path class="fil55" d="M16644 10216l-74 581 -595 14 55 -743 614 148zm37 -263l-37 263 364 102 -110 -305 -217 -60zm0 0l-249 -383 -259 235 273 273 235 -125z"/>
    <polygon class="fil56" points="20100,13141 20252,13275 20123,13437 19971,13298 "/>
    <polygon class="fil46" points="22914,12025 22914,11116 22250,10996 22333,11739 "/>
    <polygon class="fil56" points="20150,13750 20303,13884 20178,14041 20021,13907 "/>
    <polygon class="fil44" points="18605,8897 18268,9132 18120,8850 18337,8767 "/>
    <polygon class="fil42" points="19195,7582 18619,8564 18162,8251 18213,7508 18314,7273 19186,7093 "/>
    <polygon class="fil12" points="18379,6668 18988,7023 19043,7309 18213,7508 17368,6963 "/>
    <polygon class="fil8" points="20653,6322 20492,6105 18379,6668 18642,6788 20607,6857 20723,6747 "/>
    <polygon class="fil19" points="21175,6765 21073,6867 20607,6857 20492,6105 21092,6497 "/>
    <polygon class="fil13" points="21567,6779 18379,6668 19043,7309 19306,7462 21198,7642 21373,7549 "/>
    <polygon class="fil57" points="21396,9321 20676,10271 19841,10244 19034,9206 19043,7309 21373,7549 "/>
    <path class="fil45" d="M21244 8121l-106 -175 -452 111 -111 166 9 300 185 207 198 -470 277 -139zm-858 79l46 300 -115 207 -300 -470 -369 -208 161 -152 494 184 83 139z"/>
    <polygon class="fil44" points="20598,8652 20769,8730 20529,8943 20317,8707 "/>
    <polygon class="fil58" points="20589,8200 20769,8730 20317,8707 20386,8200 "/>
    <path class="fil42" d="M21161 7886l152 199 -69 36 -106 -106 -452 42 73 -125 402 -46zm-946 37l88 138 -508 -129 -147 97 -93 -51 217 -147 443 92z"/>
    <path class="fil22" d="M20967 8154c-58,0 -106,47 -106,106 0,58 48,106 106,106 59,0 106,-48 106,-106 0,-59 -47,-106 -106,-106zm-1006 -37c-58,0 -106,47 -106,106 0,59 48,106 106,106 59,0 106,-47 106,-106 0,-59 -47,-106 -106,-106z"/>
    <path class="fil45" d="M20700 7669l-194 69 -545 -253 577 184 162 0zm604 628l78 115 -221 -83 143 -32zm-1592 0l-281 78 110 -129 171 51zm1163 493l337 416 -120 -333 -217 -83zm-697 -46l-577 277 268 -249 309 -28z"/>
    <polygon class="fil44" points="21059,9173 19680,9058 20164,9538 20635,9575 "/>
    <polygon class="fil59" points="20861,9229 19897,9150 20081,9316 20718,9367 "/>
    <polygon class="fil57" points="18162,8251 18628,8237 18605,8878 18120,8850 "/>
    <polygon class="fil44" points="18457,8394 18273,8398 18443,8694 "/>
    <polygon class="fil13" points="21419,17211 21461,17091 21133,16957 20077,16652 19671,16583 19638,16712 "/>
    <polygon class="fil11" points="21461,17091 19671,16583 20557,16551 20787,16625 "/>
   </g>
   <g>
    <g>
     <polygon class="fil60" points="7590,16854 10226,16498 12798,16926 10211,17325 "/>
     <path class="fil61" d="M8270 16763l1581 -5 0 -203 -213 -108 -1009 0 -359 108 0 208zm2600 281l1160 0 0 -213 -156 -113 -741 0 -263 113 0 213z"/>
     <path class="fil62" d="M9052 16041l-782 514 1581 0 -7 -513 -153 -108 -518 0 -121 107zm2160 132l-171 112 -171 546 1160 0 -226 -546 -160 -98 -432 -14z"/>
     <polygon class="fil63" points="8283,13334 9052,16042 9397,16041 9494,15934 9180,13699 8668,13397 "/>
     <path class="fil64" d="M9180 13699l-146 42 363 2301 447 0 140 -1784 -237 -244 -567 -315zm931 348l-127 211 1057 2027 414 0 88 -161 -527 -2453 -905 376z"/>
     <polygon class="fil63" points="11455,16285 10910,13741 11394,13485 11624,13542 11801,16285 "/>
     <polygon class="fil65" points="9399,12777 9798,12777 10024,13308 10704,13315 11624,13542 9984,14258 8283,13334 8456,13194 9147,13220 "/>
     <polygon class="fil66" points="8323,10536 8547,10369 9054,9548 9130,9179 8360,7888 8175,7951 7778,8548 7754,8911 "/>
     <path class="fil67" d="M9130 9179l561 306 -26 152 -1103 911 -239 -12 807 -1357zm-1853 -1632l63 -189 385 -202 196 -6 439 738 -606 1023 -477 -1364z"/>
     <polygon class="fil68" points="9431,9157 9667,9085 11319,9328 11208,9529 10350,9750 10037,9750 9562,9414 "/>
     <polygon class="fil69" points="11771,6689 11572,6743 11118,8214 11434,8516 11164,9024 10891,8977 11045,9432 11005,9581 11069,9791 11233,9877 12237,8503 12274,8132 11975,7580 12120,7010 "/>
     <polygon class="fil70" points="11406,9640 11045,9432 11016,9736 11327,10084 11534,10045 "/>
     <polygon class="fil71" points="11434,8187 11046,8341 10723,8961 11045,9432 12004,7995 12036,7667 11929,7560 "/>
     <polygon class="fil66" points="12030,10321 11844,10561 11641,12209 11750,12543 11938,12798 12123,12782 12604,12150 12607,11885 "/>
     <polygon class="fil70" points="9431,10218 9338,10432 9625,11511 9891,11549 10807,10532 10818,10279 10754,10105 10395,9915 9931,9890 9532,10055 "/>
     <polygon class="fil72" points="10024,9895 9895,10036 9577,11329 9625,11511 9891,11549 10057,11364 10355,10089 10256,9908 "/>
     <polygon class="fil73" points="7487,12332 7234,12422 8283,13334 8456,13194 8589,12409 "/>
     <polygon class="fil67" points="10675,13473 11624,13542 12030,10321 11233,9877 11166,10156 11472,10979 10868,12544 "/>
     <polygon class="fil74" points="9431,10218 9758,11308 9891,11549 9811,12561 9598,12777 9257,13390 8283,13334 8416,12561 8522,11903 9201,10339 "/>
     <polygon class="fil75" points="10818,10279 9758,11308 9598,12777 9893,13427 10675,13473 10868,12544 10927,10384 "/>
     <polygon class="fil67" points="8323,10536 8429,10675 8522,11903 8416,12561 7234,12422 "/>
     <path class="fil76" d="M8323 10536l983 -735 152 7 74 247 -101 163 -1015 2343 -93 -2025zm2910 -659l548 1196 -1106 2400 143 -3194 117 -260 298 -142z"/>
     <polygon class="fil64" points="11045,9432 10435,9637 10316,9789 10754,9991 11233,9877 "/>
     <polygon class="fil65" points="10818,10279 10355,10089 10316,9789 11233,9877 "/>
     <polygon class="fil64" points="9562,9414 9970,9637 10024,9789 9612,9903 9306,9801 "/>
     <polygon class="fil65" points="9431,10218 9306,9801 10023,9789 9895,10036 "/>
     <polygon class="fil63" points="9970,9637 9895,10036 10355,10090 10435,9637 "/>
     <polygon class="fil67" points="12607,11885 11938,12798 12502,13562 12667,13574 13053,13359 13082,13170 "/>
     <polygon class="fil77" points="6846,6663 7118,7094 7273,7105 7579,6219 7486,6143 6853,6471 "/>
     <polygon class="fil69" points="6630,6313 6676,6472 6846,6663 7220,6447 7526,5814 "/>
     <path class="fil77" d="M7656 5458l-130 356 -57 116 230 441 146 25 345 -51 0 -228 -292 -544c0,0 -246,-108 -242,-115l0 0z"/>
     <polygon class="fil78" points="7656,5458 8190,6345 8549,6092 8177,5598 "/>
     <polygon class="fil79" points="8124,5230 7656,5458 8549,6092 8429,5586 "/>
     <polygon class="fil78" points="8536,5451 8124,5230 8549,6092 8615,5674 8642,5560 "/>
     <polygon class="fil77" points="8631,5274 8536,5451 8615,5674 8828,5674 8854,5446 "/>
     <polygon class="fil79" points="8909,5122 8631,5274 8828,5674 9109,5553 9147,5269 "/>
     <polygon class="fil80" points="7845,6396 7526,5814 7094,6238 7220,6447 7433,6320 7118,7094 7273,7105 7632,6915 "/>
     <polygon class="fil70" points="7118,7094 7693,6768 7921,7150 7277,7547 "/>
     <polygon class="fil79" points="6017,6382 6630,6313 6999,6574 6913,6776 6596,6801 6343,6763 6137,6629 "/>
     <polygon class="fil78" points="6503,7054 6596,6801 6999,6574 7118,7094 6730,7521 6596,7383 "/>
     <polygon class="fil77" points="6144,7156 6017,6382 6596,6801 6730,7521 "/>
     <polygon class="fil81" points="9192,6045 9441,6153 10397,6047 10783,5933 9733,5325 9147,5269 "/>
     <polygon class="fil82" points="9147,5269 10435,5944 10566,6026 11112,6211 11266,6149 11274,5756 10703,5148 10225,4819 "/>
     <polygon class="fil71" points="13100,6623 12435,5437 11819,5642 11266,6149 11629,6350 12564,6720 "/>
     <polygon class="fil81" points="11762,6327 11895,6305 13100,6623 12770,7423 12352,7465 12004,7995 11787,6744 11682,6591 "/>
     <polygon class="fil68" points="12237,8503 12004,7995 12275,7974 12444,8219 "/>
     <path class="fil80" d="M9192 6045l-298 1997 198 577 1471 115 871 -547 461 -1882 -1460 -361 -1243 101zm3057 1182l-245 768 440 224 328 -798 -523 -194z"/>
     <path class="fil68" d="M12379 7496l191 76 -286 275 95 -351zm-2646 33l174 236 303 -231 -244 -93 -233 88z"/>
     <path class="fil69" d="M9980 7132l-247 397 -181 -594 -265 -169 251 -98 383 147 42 141 17 176zm148 14l70 -181 198 -150 481 -75 299 126 -499 169 -467 499 -82 -388z"/>
     <polygon class="fil83" points="9963,6956 9733,7529 10210,7534 10198,6965 "/>
     <path class="fil81" d="M9913 6727l8 88 -402 -100 -232 51 217 -138 409 99zm498 -6l-15 94 519 -26 261 77 -240 -168 -525 23z"/>
     <polygon class="fil69" points="10272,6446 10301,6689 10396,6815 10218,6731 "/>
     <path class="fil84" d="M9585 7076c65,0 118,-50 118,-112 0,-62 -53,-113 -118,-113 -65,0 -118,51 -118,113 0,62 53,112 118,112zm1069 85c65,0 118,-50 118,-112 0,-62 -53,-113 -118,-113 -65,0 -118,51 -118,113 0,62 53,112 118,112z"/>
     <path class="fil65" d="M9538 11668l199 -171 183 206 -222 157 -160 -192zm-98 782l212 -167 171 202 -211 162 -172 -197z"/>
     <polygon class="fil68" points="9581,8033 10350,8051 10517,7993 10552,8079 10370,8144 9571,8106 "/>
     <path class="fil82" d="M8894 8042l331 220 149 -405 533 -92 757 131 -46 495 816 -204 -514 878 -177 109 -1303 -223 -547 -170 1 -739 0 0zm1623 -49l-1036 -22 -129 361 158 93 172 -189 366 -1 52 228 360 -33 57 -437 0 0z"/>
     <polygon class="fil81" points="9431,9157 8893,8781 10920,9065 11045,9432 "/>
     <polygon class="fil85" points="10494,7731 10806,8049 10742,7807 "/>
     <polygon class="fil68" points="12989,13861 12707,13840 12644,14177 12909,14279 13308,14063 "/>
     <polygon class="fil85" points="12644,14177 12813,14143 13541,14108 13556,14376 12690,14526 "/>
     <polygon class="fil80" points="12856,13633 12707,13840 13149,13962 12813,14143 12885,14335 13541,14108 13514,13817 13212,13523 "/>
     <polygon class="fil70" points="12502,13562 12707,13840 13212,13523 13082,13170 "/>
     <polygon class="fil82" points="12435,5437 11404,5148 11208,5325 11169,5643 11266,6149 "/>
     <polygon class="fil71" points="11404,5148 11266,6149 10225,4819 "/>
    </g>
   </g>
   <g>
    <polygon class="fil86" points="12316,18269 15069,17687 17500,18293 14731,18781 "/>
    <polygon class="fil9" points="12938,15351 13142,16688 13292,17632 13661,17758 13771,17624 13866,16004 13732,15587 13520,15406 "/>
    <path class="fil10" d="M16249 15320l-252 -134 -472 142 -133 243 -48 331 622 1872 181 102 330 -86 -102 -1180 -126 -1290zm-2108 236l-409 31 -71 2171 354 -134 535 -1604 -409 -464z"/>
    <polygon class="fil9" points="15140,15516 14550,16020 15753,17774 16147,17876 15392,15571 "/>
    <path class="fil42" d="M12725 18057l567 -425 723 -8 16 425 -110 32 -1031 7 -165 -31zm2926 149l102 -432 724 16 189 416 -189 48 -669 0 -157 -48z"/>
    <path class="fil43" d="M14031 18049l0 205 -1306 0 0 -197 1306 -8zm1620 409l1015 0 0 -252 -1015 0 0 252z"/>
    <polygon class="fil6" points="12938,15351 14550,16020 16249,15320 14228,15162 "/>
    <polygon class="fil12" points="12993,11702 13323,13259 12269,13353 "/>
    <polygon class="fil13" points="13748,11403 12993,11702 12969,13173 14173,12905 13724,12087 "/>
    <polygon class="fil12" points="15313,12229 14173,12905 14786,13432 16422,11953 16548,11686 15777,11363 "/>
    <polygon class="fil87" points="14904,13188 14888,12905 14692,12669 14495,12685 14173,12905 14456,13102 "/>
    <polygon class="fil88" points="15227,12889 14692,12669 14904,13188 15093,13133 "/>
    <polygon class="fil13" points="12953,14274 12938,15351 14228,15336 14314,15194 14306,14132 14251,13715 13567,13833 "/>
    <polygon class="fil12" points="14228,13770 14228,15336 16249,15320 16383,13440 15250,14179 "/>
    <polygon class="fil6" points="14031,14297 14228,14486 14416,14297 14228,14085 "/>
    <polygon class="fil11" points="12828,13747 12953,14274 14228,13770 13724,13275 12969,13062 "/>
    <polygon class="fil5" points="14228,13770 13740,13495 13771,13086 13937,12819 14904,13188 14786,13432 "/>
    <polygon class="fil13" points="17075,13078 16170,13715 15132,13503 14904,13188 16548,11686 "/>
    <polygon class="fil5" points="12269,13353 12969,13062 12953,14274 "/>
    <polygon class="fil11" points="14904,13188 14228,13770 15258,14360 16170,13715 "/>
    <polygon class="fil87" points="13559,13393 13724,13062 13732,12740 12969,13062 "/>
    <path class="fil51" d="M13937 12819l-197 676 -181 -102 173 -653 205 79zm487 -1275l-173 -275 -307 -55 -196 189 94 440 252 165 220 -196 110 -268zm401 520l-314 -268 -87 -252 378 -283 810 -102 165 204 -558 551 -394 150z"/>
    <polygon class="fil21" points="13984,12213 14094,12008 14212,11843 14424,11914 14660,11843 14825,12064 14660,12449 14408,12103 14054,12472 "/>
    <polygon class="fil20" points="14054,12472 14322,11977 14424,11914 14503,11993 14660,12449 14173,12905 "/>
    <polygon class="fil9" points="14212,11843 14322,11977 14503,11993 14660,11843 14424,11544 "/>
    <polygon class="fil12" points="13567,12111 14173,12905 14094,12008 13748,11403 "/>
    <polygon class="fil13" points="15777,11363 14825,12064 14173,12905 15486,12299 "/>
    <polygon class="fil44" points="13646,10703 13944,11214 14416,11552 15242,11285 15439,11017 15344,10506 13779,10593 "/>
    <polygon class="fil87" points="14959,11381 15612,11159 16084,10074 15848,8650 15415,8461 14760,10707 15227,10707 "/>
    <polygon class="fil89" points="13351,10707 14760,10707 15305,9861 15428,8660 15533,8217 15022,7266 13976,6864 12945,7384 12584,8650 12599,8705 12694,8854 12619,9122 12622,9260 12643,10050 "/>
    <polygon class="fil88" points="13378,9429 13646,9586 13881,9397 13614,9318 "/>
    <path class="fil87" d="M12619 9122l169 -220 448 -16 174 236 125 -276 -70 -117 -866 -24 20 417zm1137 -409l-95 133 165 268 268 -244 692 8 47 228 220 -511 -1297 118zm-464 936l-40 307 -71 -150 111 -157zm920 -181l275 291 -16 -189 -259 -102z"/>
    <polygon class="fil44" points="13268,9830 13708,10050 14385,9649 "/>
    <polygon class="fil59" points="13457,9861 14102,9751 13693,9971 "/>
    <path class="fil43" d="M12308 8666l1102 -55 55 118 -1007 39 63 362 889 -8 39 55 -55 71 -975 15 -111 -597zm2848 -134l23 134 -78 63 -150 495 -1101 24 -63 -71 39 -63 1007 -8 134 -440 -1211 47 55 -118 1345 -63z"/>
    <polygon class="fil90" points="13465,8729 13378,9429 13881,9397 13756,8713 "/>
    <path class="fil36" d="M12930 8390l-134 63 614 158 -48 -111 -432 -110zm936 71l-55 134 715 -205 -173 -63 -487 134z"/>
    <path class="fil22" d="M13119 9012c62,0 117,-55 117,-110 -7,-63 -55,-111 -125,-111 -63,8 -118,56 -110,118 0,56 55,103 118,103l0 0z"/>
    <polygon class="fil36" points="15651,9728 15470,9704 15698,8972 15974,8917 15927,9208 "/>
    <polygon class="fil36" points="16894,8469 16485,9153 15919,9067 15428,8660 15793,8516 16571,8367 "/>
    <polygon class="fil16" points="15919,9059 15101,8729 15156,8532 15974,8917 16013,9027 "/>
    <polygon class="fil44" points="16084,10074 15651,9728 15895,9712 16186,9853 "/>
    <polygon class="fil89" points="16186,9853 15651,9728 15974,8917 16485,9153 "/>
    <polygon class="fil44" points="16084,9161 16273,9240 15942,9523 "/>
    <polygon class="fil91" points="15989,6927 15171,6990 15840,8390 16218,8587 16894,8469 "/>
    <polygon class="fil92" points="14873,7423 15179,6975 15510,7140 16218,8587 15428,8660 "/>
    <polygon class="fil91" points="13921,7030 14432,7297 14873,7423 15510,7140 14865,6581 14204,6566 13881,6825 "/>
    <polygon class="fil92" points="14739,6369 14204,6566 15510,7140 15989,6927 "/>
    <polygon class="fil91" points="12702,7077 13653,6943 14204,6566 13787,6400 "/>
    <polygon class="fil92" points="12788,7305 12702,7077 14204,6566 13921,7030 13354,7384 12977,7517 "/>
    <polygon class="fil91" points="12702,7077 12977,7517 12584,8650 12308,8186 "/>
    <polygon class="fil92" points="13063,8099 12859,8194 12977,7517 13126,7502 13166,7572 "/>
    <path class="fil91" d="M13921 7030l-755 542 -189 -55 944 -487zm747 550l39 -118 166 -39 243 731 -275 -94 -173 -480z"/>
    <polygon class="fil92" points="13921,7030 14668,7580 14873,7423 "/>
    <path class="fil22" d="M14212 8980c63,0 118,-55 118,-110 -8,-63 -63,-110 -126,-110 -63,8 -118,55 -110,118 0,55 55,102 118,102z"/>
   </g>
  </g>
 </g>
</svg>
